<?xml version="1.0" encoding="UTF-8"?> <svg xmlns="http://www.w3.org/2000/svg" xmlns:xlink="http://www.w3.org/1999/xlink" id="Layer_1" width="820" height="460" viewBox="0 0 820 460"><defs><style>.cls-1{fill:none;}.cls-2{clip-path:url(#clippath);}.cls-3{fill:#008c99;}.cls-4{fill:#fff;}.cls-5{fill:#424143;}</style><clipPath id="clippath"><circle id="outter_circle" class="cls-1" cx="410" cy="230" r="153"></circle></clipPath></defs><g class="cls-2"><rect id="bottom_ring" class="cls-5" x="257" y="230" width="306" height="153"></rect><rect id="upper_ring" class="cls-3" x="257" y="77" width="306" height="153"></rect></g><circle id="inner_circle" class="cls-4" cx="410.1" cy="230" r="100.98"></circle><g id="symbol"><path class="cls-3" d="M358.1,279.45c-.19,1.22-.31,2.44-.31,3.68,0,10.77,3.46,16.16,10.39,16.16h40.12v-41.7h-38.65c-4.75,6.78-7.72,11.38-8.93,13.79-1.35,2.65-2.2,5.34-2.62,8.06"></path><path class="cls-3" d="M385.13,212.06l20.79-32.21c-1.62-3.69-3.26-6.97-4.92-9.9h0c-6.3-11.09-12.91-16.66-19.82-16.66-1.63,0-3.08,.16-4.38,.44h0c-2.9,.63-4.99,1.94-6.23,3.97l-19.67,31.42,34.24,22.94Z"></path><path class="cls-3" d="M457.34,250.91h17.29c4.14,0,8.43-1.81,12.88-5.42,4.75-3.77,7.12-7.76,7.12-11.98,0-1.95-.64-3.88-1.92-5.76l-20.56-31.41-35.38,20.57,20.57,34.01Z"></path><path class="cls-3" d="M482.07,254.5c-3.62,1.21-8.78,1.81-15.49,1.81l-29,.16v-5.99c0-2.33-.57-3.5-1.69-3.5-.83,0-1.44,.31-1.81,.9l-18.23,31.6,18.98,29.16c1.43,2.19,2.67,3.05,3.73,2.59,1.05-.3,1.58-.86,1.58-1.69v-9.94h16.04c5.88,0,10.02-2.22,12.43-6.66l25.99-47.24c-3.84,4.37-8.03,7.31-12.54,8.81Z"></path><path class="cls-3" d="M383.05,236.32l-.02-.03-15.85-29.78-37.07,.91c-1.66,.08-2.48,.94-2.48,2.6,0,.38,.53,.9,1.58,1.58l7.68,4.63-4.18,6.5h0s-3.95,6.15-3.95,6.15c-2.26,3.62-3.39,6.6-3.39,8.93,0,2.11,.75,4.48,2.26,7.12l25.2,43.95c-.6-2.78-.9-5.42-.9-7.91,0-1.9,.27-3.8,.78-5.67h0c.68-2.51,1.8-4.99,3.39-7.43l19.01-29.86,.2-.31,1.46,.89,.06,.04,6.05,3.7c.96,0,1.55-.3,1.8-.89h0c.08-.2,.12-.43,.12-.7,0-.67-.31-1.62-.9-2.83l-.86-1.61Z"></path><path class="cls-3" d="M421.27,202.02l29.42,2.35,17.85-30.06c.6-1.05,.9-2.15,.9-3.28,0-1.35-.45-2.04-1.35-2.04,.14,0-.46,.23-1.81,.68l-8.13,3.73-7.46-14.8c-1.84-3.67-4.74-6.29-8.61-7.93h-.02c-3.11-1.32-6.84-2.01-11.26-2.01h-46.44c5.65,1.73,9.49,3.43,11.52,5.08,3.89,3.09,7.86,8.44,11.9,15.98h0c.89,1.67,1.78,3.39,2.68,5.27l9.27,19.44-6.9,3.28c-.68,.3-1.02,.9-1.02,1.8,0,1.13,.71,1.78,2.15,1.92l7.28,.58h.03Z"></path></g><g id="recycled_100"><path class="cls-4" d="M311.81,179.85l-13.3,1.38-2.3,5.37,10.73,4.6-2.27,5.28-28.89-12.39,4.53-10.57c2.39-5.57,6.33-9.06,12.6-6.37,4.46,1.91,5.79,5.07,6.31,8.52l14.93-1.32-2.35,5.49Zm-29.34,.85l8.79,3.77,1.66-3.88c2.05-4.79,.6-6.63-2-7.75-2.68-1.15-4.75-.77-6.7,3.77l-1.75,4.09Z"></path><path class="cls-4" d="M315.77,172.49l-25.37-18.56,11.88-16.24,4.49,3.29-8.41,11.49,5.4,3.95,6.52-8.92,4.49,3.29-6.52,8.92,6.49,4.75,8.67-11.85,4.49,3.29-12.15,16.6Z"></path><path class="cls-4" d="M318.23,143.2c-6.5-7.44-5.84-16.6,.93-22.5,2.47-2.16,5.48-3.83,7.94-4.49l3.13,4.54c-2.64,.93-4.97,1.95-7.44,4.11-4.6,4.02-3.95,9.47,.18,14.21,4.13,4.74,9.45,6.12,14.05,2.1,2.47-2.16,3.8-4.33,5.08-6.82l4.08,3.71c-.99,2.35-3.05,5.11-5.52,7.26-6.77,5.91-15.92,5.31-22.42-2.13Z"></path><path class="cls-4" d="M354.57,119.12l6.5,12.31-5.08,2.68-6.5-12.31-17.79-10.42,5.4-2.85,12.54,7.4,.97-14.52,5.4-2.85-1.44,20.56Z"></path><path class="cls-4" d="M365.19,111.94c-2.61-9.53,1.97-17.49,10.63-19.85,3.16-.86,6.6-1.06,9.11-.58l.84,5.45c-2.79-.31-5.33-.41-8.49,.46-5.89,1.61-7.68,6.8-6.02,12.87,1.66,6.07,5.84,9.62,11.74,8.01,3.16-.86,5.3-2.24,7.54-3.92l2.05,5.12c-1.91,1.69-4.97,3.27-8.13,4.13-8.66,2.37-16.65-2.15-19.26-11.68Z"></path><path class="cls-4" d="M396.26,120.59l-1.73-31.39,5.74-.32,1.43,25.83,12.91-.71,.31,5.56-18.65,1.03Z"></path><path class="cls-4" d="M417.19,119.83l4.7-31.08,19.89,3.01-.83,5.51-14.08-2.13-1,6.62,10.92,1.65-.83,5.51-10.92-1.65-1.2,7.95,14.52,2.2-.83,5.51-20.34-3.08Z"></path><path class="cls-4" d="M440.62,123.6l12.12-29,10.85,4.54c8.29,3.46,12.04,11.36,8.24,20.47-3.81,9.12-12.07,11.99-20.35,8.53l-10.86-4.54Zm15.29-21.69l-7.86,18.81,5.55,2.32c5.64,2.35,10-.06,12.42-5.86,2.42-5.8,1.07-10.6-4.56-12.95l-5.55-2.32Z"></path><path class="cls-4" d="M478.55,143.97l14.8-18c-1.39-.15-2.76-.53-4.08-1.26l2.7-4.06c1.75,.91,5.56,1.02,7.58-.1l3.4,2.8-19.97,24.28-4.44-3.65Z"></path><path class="cls-4" d="M499.39,141.31c7.77-6.24,16.81-5.96,21.57-.05,4.67,5.81,2.96,14.22-4.43,20.15-7.77,6.24-16.3,6.24-21.39-.09-4.87-6.06-3.17-14.05,4.26-20.01Zm3.6,4.48c-5.85,4.7-6.36,9.14-3.77,12.37,2.76,3.43,7.43,3.94,13.76-1.15,5.81-4.67,6.35-9.66,3.96-12.63-2.39-2.98-7.69-3.62-13.95,1.42Z"></path><path class="cls-4" d="M519.81,168.35c9.16-3.93,17.8-1.24,20.79,5.73,2.94,6.85-.96,14.49-9.67,18.23-9.16,3.93-17.38,1.65-20.58-5.82-3.07-7.14,.71-14.38,9.46-18.14Zm2.27,5.28c-6.89,2.96-8.58,7.11-6.95,10.9,1.74,4.04,6.1,5.79,13.57,2.58,6.85-2.94,8.71-7.6,7.2-11.11-1.51-3.51-6.44-5.54-13.82-2.37Z"></path></g><g id="claim_standard"><path class="cls-4" d="M292.86,278.63l-3.06-5.69c1.14-.6,1.9-1.36,2.28-2.28,.38-.92,.38-1.95,0-3.1-.5-1.53-1.42-2.57-2.78-3.14-1.35-.57-3.26-.44-5.74,.36-2.75,.9-4.54,1.99-5.38,3.29-.83,1.3-1,2.72-.49,4.28,.38,1.16,1.02,2.01,1.93,2.54,.9,.53,2.21,.68,3.93,.46l.94,6.36c-2.97,.28-5.45-.24-7.44-1.56-1.99-1.31-3.47-3.46-4.45-6.45-1.11-3.39-.92-6.44,.56-9.16,1.48-2.71,4.11-4.69,7.9-5.92,3.83-1.25,7.14-1.21,9.93,.12,2.79,1.33,4.75,3.72,5.88,7.16,.92,2.82,1.05,5.27,.37,7.33-.67,2.06-2.13,3.86-4.38,5.4Z"></path><path class="cls-4" d="M280.32,291.29l29.93-15.4,2.95,5.74-29.93,15.4-2.95-5.74Z"></path><path class="cls-4" d="M304.57,299.56l-2.62-5.34c2.29-.87,4.37-.99,6.23-.36,1.86,.62,3.74,2.21,5.61,4.77,1.7,2.32,2.7,4.25,2.98,5.78,.29,1.54,.18,2.85-.33,3.93-.5,1.08-1.89,2.45-4.14,4.11l-6.11,4.41c-1.73,1.27-2.94,2.29-3.64,3.06-.7,.77-1.35,1.73-1.95,2.87l-3.78-5.14c.25-.39,.63-.93,1.17-1.63,.24-.31,.4-.52,.47-.63-1.52-.25-2.86-.73-4.04-1.42-1.18-.69-2.18-1.61-3.03-2.76-1.49-2.02-2.11-4.02-1.87-5.99,.24-1.97,1.2-3.57,2.88-4.81,1.11-.82,2.29-1.28,3.55-1.39,1.26-.11,2.47,.14,3.64,.76,1.17,.62,2.58,1.7,4.25,3.24,2.24,2.09,3.91,3.47,4.99,4.11l.52-.38c1-.73,1.53-1.5,1.59-2.31,.06-.81-.41-1.89-1.42-3.26-.68-.93-1.39-1.51-2.14-1.76-.74-.25-1.69-.2-2.84,.15Zm.9,10.06c-.71-.5-1.75-1.36-3.12-2.58-1.37-1.22-2.36-1.94-2.99-2.16-.98-.33-1.84-.21-2.58,.33-.73,.54-1.16,1.27-1.29,2.2-.13,.93,.11,1.82,.73,2.66,.69,.94,1.65,1.61,2.9,2,.93,.28,1.81,.28,2.63-.03,.54-.19,1.44-.74,2.68-1.66l1.04-.76Z"></path><path class="cls-4" d="M306.51,328.61l17.13-17.35,4.59,4.53-17.13,17.35-4.59-4.53Zm19.45-19.71l4.19-4.25,4.59,4.53-4.19,4.25-4.59-4.53Z"></path><path class="cls-4" d="M331.45,320.4l5.05,3.15-1.76,2.82c3.17-1.07,6.01-.83,8.5,.73,1.32,.83,2.3,1.82,2.94,2.97,.63,1.15,.92,2.48,.85,3.97,1.6-.54,3.09-.75,4.48-.64,1.39,.11,2.69,.54,3.88,1.28,1.52,.95,2.61,2.06,3.28,3.33,.67,1.27,.89,2.67,.66,4.19-.17,1.12-.88,2.66-2.11,4.64l-8.25,13.23-5.47-3.42,7.38-11.83c1.28-2.05,1.92-3.49,1.91-4.33-.02-1.09-.56-1.97-1.61-2.63-.77-.48-1.63-.69-2.6-.65-.97,.05-1.88,.43-2.74,1.14-.86,.72-1.9,2.05-3.12,4l-6.2,9.94-5.47-3.42,7.07-11.34c1.26-2.01,1.97-3.37,2.14-4.08s.14-1.33-.09-1.87c-.23-.54-.7-1.03-1.4-1.47-.84-.53-1.75-.77-2.7-.74-.96,.03-1.85,.39-2.68,1.06-.83,.67-1.86,2.01-3.1,3.99l-6.27,10.05-5.47-3.41,12.91-20.69Z"></path><path class="cls-4" d="M374.27,361.26l6.55,.15c.05,1.28,.44,2.32,1.16,3.11,.72,.79,1.82,1.31,3.31,1.57,1.64,.29,2.93,.2,3.87-.25,.63-.32,1.01-.84,1.13-1.55,.08-.48,0-.91-.24-1.28-.26-.36-.92-.76-1.98-1.21-4.93-2.03-7.99-3.64-9.2-4.81-1.67-1.63-2.3-3.6-1.9-5.91,.37-2.08,1.5-3.68,3.39-4.81,1.89-1.13,4.56-1.39,8.02-.78,3.29,.58,5.63,1.54,7.04,2.89,1.41,1.35,2.23,3.13,2.47,5.33l-6.19,.05c-.09-.98-.45-1.78-1.08-2.4-.63-.62-1.61-1.05-2.93-1.28-1.67-.29-2.91-.27-3.72,.07-.54,.25-.86,.63-.95,1.16-.08,.45,.06,.87,.43,1.26,.5,.52,2.37,1.47,5.62,2.83,3.25,1.36,5.45,2.72,6.59,4.07,1.13,1.36,1.51,3.06,1.16,5.08-.39,2.2-1.64,3.93-3.76,5.19-2.12,1.26-4.98,1.57-8.58,.94-3.27-.58-5.74-1.69-7.42-3.36-1.67-1.66-2.6-3.68-2.79-6.06Z"></path><path class="cls-4" d="M416.03,347.97v5.14s-4.4,0-4.4,0l.02,9.83c0,1.99,.05,3.15,.13,3.48,.08,.33,.28,.6,.58,.81,.3,.21,.66,.32,1.09,.32,.6,0,1.46-.21,2.59-.63l.56,5.01c-1.5,.65-3.2,.97-5.1,.97-1.16,0-2.21-.19-3.15-.58-.93-.39-1.62-.89-2.06-1.51-.44-.62-.74-1.46-.91-2.51-.14-.75-.21-2.27-.21-4.55l-.02-10.63h-2.96s0-5.14,0-5.14h2.96s0-4.85,0-4.85l6.47-3.78,.02,8.61h4.41Z"></path><path class="cls-4" d="M425.84,354.55l-5.95-.1c.27-2.43,1.11-4.34,2.51-5.71,1.4-1.38,3.67-2.32,6.8-2.83,2.84-.46,5.01-.47,6.51-.03,1.5,.45,2.62,1.14,3.35,2.08,.74,.94,1.33,2.8,1.78,5.56l1.15,7.44c.34,2.12,.7,3.66,1.07,4.63s.92,1.99,1.67,3.04l-6.3,1.03c-.24-.4-.54-.99-.92-1.78-.17-.36-.28-.6-.35-.71-.92,1.23-1.95,2.22-3.1,2.95-1.15,.73-2.43,1.21-3.84,1.44-2.48,.4-4.54,.05-6.19-1.06-1.65-1.11-2.64-2.69-2.97-4.75-.22-1.36-.1-2.63,.38-3.8,.48-1.17,1.25-2.13,2.33-2.89,1.08-.76,2.69-1.53,4.82-2.31,2.89-1.04,4.86-1.9,5.93-2.57l-.1-.63c-.2-1.22-.64-2.05-1.33-2.47-.69-.42-1.87-.5-3.55-.22-1.13,.19-1.98,.55-2.54,1.1-.56,.55-.95,1.41-1.16,2.6Zm9.36,3.78c-.77,.41-2.01,.94-3.72,1.61-1.71,.67-2.8,1.22-3.29,1.68-.73,.72-1.03,1.54-.88,2.45,.15,.89,.6,1.61,1.37,2.15,.77,.54,1.67,.73,2.7,.56,1.15-.19,2.18-.74,3.1-1.67,.68-.7,1.07-1.49,1.17-2.36,.08-.57,0-1.62-.26-3.14l-.21-1.27Z"></path><path class="cls-4" d="M474.58,357.61l-5.98,2.43-4.68-11.53c-.99-2.44-1.76-3.97-2.31-4.58-.55-.61-1.19-1-1.92-1.16s-1.51-.08-2.32,.25c-1.04,.42-1.85,1.08-2.44,1.98-.59,.9-.85,1.88-.77,2.94s.63,2.85,1.65,5.38l4.16,10.23-5.98,2.43-9.18-22.59,5.55-2.26,1.35,3.32c.93-3.35,2.9-5.64,5.89-6.85,1.32-.54,2.62-.79,3.91-.76,1.28,.03,2.36,.3,3.22,.81,.86,.51,1.59,1.19,2.19,2.03,.6,.85,1.26,2.14,1.96,3.89l5.7,14.04Z"></path><path class="cls-4" d="M502.8,339.1l-4.88,3.48-2.08-2.92c0,1.71-.36,3.24-1.07,4.58-.71,1.34-1.62,2.41-2.75,3.21-2.28,1.63-4.89,2.1-7.83,1.42-2.94-.68-5.58-2.67-7.92-5.96-2.4-3.37-3.43-6.49-3.09-9.37,.34-2.88,1.71-5.18,4.13-6.9,2.22-1.58,4.8-2.03,7.73-1.34l-7.03-9.87,5.25-3.74,19.53,27.42Zm-21.41-.37c1.51,2.12,2.9,3.44,4.16,3.97,1.82,.77,3.5,.61,5.02-.47,1.21-.86,1.87-2.11,1.99-3.74,.11-1.63-.56-3.47-2.01-5.52-1.62-2.28-3.21-3.63-4.74-4.05-1.54-.42-2.95-.17-4.23,.75-1.25,.89-1.94,2.13-2.07,3.72-.14,1.59,.5,3.37,1.9,5.34Z"></path><path class="cls-4" d="M501.47,316.74l-4.7,3.65c-1.31-2.06-1.86-4.07-1.63-6.03,.23-1.95,1.4-4.11,3.52-6.47,1.92-2.14,3.61-3.51,5.05-4.1,1.45-.59,2.75-.75,3.92-.48,1.16,.27,2.79,1.34,4.88,3.21l5.56,5.08c1.6,1.43,2.84,2.41,3.74,2.94,.9,.53,1.97,.97,3.21,1.32l-4.26,4.75c-.43-.16-1.04-.43-1.83-.81-.36-.18-.59-.29-.72-.34,.06,1.54-.13,2.95-.57,4.24-.44,1.29-1.13,2.47-2.08,3.53-1.68,1.87-3.5,2.89-5.48,3.05-1.98,.17-3.74-.44-5.29-1.83-1.03-.92-1.72-1.98-2.08-3.2-.36-1.21-.36-2.45,0-3.72,.37-1.27,1.13-2.87,2.31-4.83,1.59-2.62,2.59-4.53,3.01-5.72l-.48-.43c-.92-.83-1.79-1.19-2.59-1.09s-1.77,.79-2.9,2.05c-.77,.86-1.2,1.67-1.29,2.45-.09,.78,.15,1.7,.73,2.75Zm9.66-2.93c-.35,.8-.97,1.99-1.89,3.58-.91,1.59-1.41,2.71-1.51,3.37-.12,1.03,.17,1.84,.85,2.46,.67,.6,1.48,.87,2.42,.81,.94-.06,1.76-.48,2.45-1.26,.78-.87,1.23-1.95,1.37-3.25,.09-.97-.1-1.83-.56-2.57-.3-.49-1.02-1.26-2.17-2.29l-.96-.86Z"></path><path class="cls-4" d="M533.06,303.32l-3.38,5.49-20.77-12.78,3.14-5.1,2.95,1.82c-.86-1.73-1.29-3.08-1.31-4.05-.01-.97,.25-1.9,.8-2.79,.77-1.25,1.86-2.24,3.26-2.98l3.74,4.65c-1.17,.56-2,1.23-2.49,2.03-.47,.77-.66,1.55-.57,2.35,.1,.8,.6,1.69,1.52,2.68,.92,.99,3.15,2.57,6.68,4.74l6.41,3.95Z"></path><path class="cls-4" d="M548.93,268.38l-2.11,5.61-3.35-1.26c.95,1.42,1.51,2.89,1.67,4.39,.16,1.51,0,2.91-.49,4.2-.99,2.62-2.89,4.47-5.71,5.54-2.82,1.07-6.12,.9-9.9-.52-3.87-1.46-6.47-3.47-7.79-6.05-1.33-2.58-1.47-5.26-.42-8.03,.96-2.55,2.85-4.36,5.67-5.42l-11.35-4.27,2.27-6.04,31.5,11.86Zm-17.97,11.64c2.44,.92,4.33,1.24,5.67,.98,1.94-.38,3.24-1.45,3.9-3.19,.52-1.39,.38-2.79-.44-4.21-.82-1.42-2.4-2.57-4.75-3.45-2.62-.99-4.69-1.23-6.2-.71s-2.54,1.5-3.1,2.98c-.54,1.43-.42,2.85,.35,4.24,.78,1.4,2.29,2.52,4.56,3.37Z"></path></g></svg> 